<mxfile host="app.diagrams.net" agent="Mozilla/5.0 (Windows NT 10.0; Win64; x64) AppleWebKit/537.36 (KHTML, like Gecko) Chrome/134.0.0.0 Safari/537.36" version="26.1.1">
  <diagram name="Page-1" id="t4F0bjw1UXLZFzxonrc5">
    <mxGraphModel dx="4194" dy="1592" grid="1" gridSize="10" guides="1" tooltips="1" connect="1" arrows="1" fold="1" page="1" pageScale="1" pageWidth="850" pageHeight="1100" math="0" shadow="0">
      <root>
        <mxCell id="0" />
        <mxCell id="1" parent="0" />
        <mxCell id="hr_C6YJtpPprGCPxRi_A-30" value="" style="rounded=0;whiteSpace=wrap;html=1;strokeWidth=2;" parent="1" vertex="1">
          <mxGeometry x="-2715.55" y="-220" width="350" height="560" as="geometry" />
        </mxCell>
        <mxCell id="hr_C6YJtpPprGCPxRi_A-78" value="" style="edgeStyle=orthogonalEdgeStyle;rounded=0;orthogonalLoop=1;jettySize=auto;html=1;strokeWidth=3;" parent="1" source="hr_C6YJtpPprGCPxRi_A-25" edge="1">
          <mxGeometry relative="1" as="geometry">
            <mxPoint x="-1430" y="40" as="targetPoint" />
          </mxGeometry>
        </mxCell>
        <mxCell id="hr_C6YJtpPprGCPxRi_A-25" value="" style="rounded=0;whiteSpace=wrap;html=1;strokeWidth=2;" parent="1" vertex="1">
          <mxGeometry x="-1980" y="-240" width="330" height="560" as="geometry" />
        </mxCell>
        <mxCell id="hr_C6YJtpPprGCPxRi_A-86" value="" style="edgeStyle=orthogonalEdgeStyle;rounded=0;orthogonalLoop=1;jettySize=auto;html=1;entryX=0;entryY=0.483;entryDx=0;entryDy=0;entryPerimeter=0;strokeWidth=3;" parent="1" source="hr_C6YJtpPprGCPxRi_A-4" target="hr_C6YJtpPprGCPxRi_A-25" edge="1">
          <mxGeometry relative="1" as="geometry">
            <mxPoint x="-2405.655" y="30.309999999999945" as="targetPoint" />
          </mxGeometry>
        </mxCell>
        <mxCell id="hr_C6YJtpPprGCPxRi_A-4" value="" style="shape=image;imageAspect=0;aspect=fixed;verticalLabelPosition=bottom;verticalAlign=top;image=data:image/webp,UklGRhoWAABXRUJQVlA4TA4WAAAvIIFIEPX4nbbfdhr5/zobQoWECgkVEiokVKhQoUKFZG9Chw4dKuyQsENCh4T992ivvc77tec8u+haVg2qngPVdBUl3GbaGPnNob00J9lWl3rYLjHQp2p3FWCot6uWXAyGPkjTvOzi8EYYaiRJkuRkw9h7HSYsqLbt1o0KAwsLxXrmfaGgoKChoaCgoNnk011s2y40GobDYT8h3E8Iw2E4DMMwHA7Dg2E4DA8eDA9+dsOCbSdo9ASlMUWk3W0ICITP6DdDt7feo0n06pPxSaVtWOxpeY5sX5lVya3u/Lrmb6KwicKdKNwxesfo3cbuqLba3b313/cfz3VmDu+uvXgV3njrXc1gryHFt5nMds6ta+EmqmP3T3irutrqTHP2h3BF4l3dUMxpcczlNzG2w5Db/9xNePMl7/K7uXtniXd1oYjZlPhlVnmdLz5Z0a3fm58Nt3PDy5S9vtvs96p4azu7vk/C6dTAux5DtGasvEc/p/rU3gdnK+GCgZ7dMN9rl9Rzmpy6rHVXQoMyn1vVKoWiGaH6yXwIEAbeo03x72MaRU/C4wct0DGYDRnralMoGhPaC38A++dgvk+haE/oz68AjETPfmTr3/ZTgkFovzoGFoPZOFclQ0EKVOemAMVQzDUVcRvWpijhtTMgkaS5b4yKz6NauFthI7+RX8vdyK3lVrJr+w27WY52XlZVfELG9B8BiLXcdTVG6nsLd5SzKyPbhqUhKSkMcolkIHBscT36pt/slLtS32rMxhpwSGZTzRhpvN1GM7WU5AYI+reBn08cGyVJlXK72ehKYzWm9i/A8CK7KsZIKuba9LYhIUGIPB/4AeVj+NnPF46NkqSYSGJn98C2Zellei+gkrfSW+fo3YwMyuiO7MrwljL1q7otZaN+kcuznSUZBNNaXoEID7rGiMebXztIChTebekbhTU6KItHa0z3ATwqJtGfTGPM5X5qKUF857YVbr5Tnfb+pSjBmP4sKHirq12+FM2laiO1JZGQlG0NNpIQtxpV0cDl8hs4kIxp3Rgx/vzGsNShU/QhdPqREbzh9UdQ/CgsGCNWOsvYkhydohuhfNIWvOmFFRCohZsQy5n8RqtCpWhJqLQisUDhJh4Fv75x2RiRuBu7hIi1rfFGCGe7DSN088uvgo1Er1d+XUVy5DKzUmfya8xen74UCfR3Ai1ztY1A6CTBeaHtQGxeYP9EIGDaD4IrVKwK5EV1ejDxh4ITmJuuCnxLVgMqaBzzsxkzXfeHghWoTxvDz3UcSHUTN5sxm2V/KHiB8qYx3FyPgoe0PIzhDRVupAR/KJiBtdf8+fFR0OLIXBXDXX5Pb6n4QoENVL5vcWdJZlXeBAkDPZ8b3F8PO5hgTIQCHIhxznITNxoBkrrWee98KbXEeldw39Re4s2X9Z2gIJm9XxpOauZaxxcCIND5mJNoXn4ZDAzR0jKcv09rJeo2EJt3zTZn5rSG0hIE3K1y3nJ+o06hAkGsR5zZU72rP+aN4WMbWan4qXAQK3/nzaF53XHIzxaXPDAu5uc61Fws5bzV/NoclQ0UrrkyZzZ9FDRvTJPKBg5X0xg+F6yzpj20RGUDiKvXNkE6Oc93j4UNOhtMXDt8uTWv6VUNXxwdGhtUXB2+KMxdHfGfKg9MboWIAzpXaXBlWFVDSfXLFtftZa4QHkD3v1xZ1vpSu3IxV7nPNJnxAxZ9kyvTXu5oplfh0RsYk7Yw4wct+i95rmvWG1rp5TZ47qua2kJjg5CrVeXJuY03GuGh4fnf0fM8pK7X4sm7hzoL7qaVFDwPq4taRl9R/hHXWV8Y2CDXSU3qWI7bPCDeAa9r8aB9rEUMfZ77+dLzELsveXKw/0YDrPLcTdPzMLsmTx6uatAuwvDI7Z6H2vHI8uaBcsm9bXjKfTHciCsNw8GjWJJ/xcFkyhXvCPehUjYcPK+UYtlw6J06nofcdXY4snJZabtHnj+EOc/D7uZ4/lkpbD+5UrgJDvQ8D73rcaBwEyvKsGCELxga1zML+tDKlTgMEFfKupDerBsBptDhMetvNIlxzfPh4Nb0iHD2kv3x/t3zYeH+bpi4nFWAvhFgCiUe01df9jPtuncMj0O9bVSXBVe6hp8prHhMd0Xxe8zHng8X97FR+5YXTMWxWepABKe6MLjEzNrWC6nIrgr7Y00tgeRj1a7Nztue1H4J2Gm2AHnnsIKqnWXn7r8kosb+1s/BAxdjmkxAhqBTLMi3DAs1if1+sD/S7wHymAhj4d3erM2Bavc9O3/XpGGD+Ym+rsQOHLYhGAf77tfbs2e2ENA5pWLqa2YGb0iroARP9HKIuTAZSt5ztzB2Wglhj9QUbswmOmiog+FGsCVvCb7rmYpat2mUFHSGYmF/nEkOFrgY02GfYBuH1Unw3PQWOoVIcuw8PlMSS2YFGI+V0UBSb23hUy8aWyQdpW5aRSRTzKRW6+hAYRsK44Gg3gzHpYvgcJjMeO4PC+gUFparzGyekoDMqkB2dIjZcERQi2GQeJd0mIIZLxnvhGRAp89hTkIbkioD5rIkmwJCTZDrQLBNQj74nvgqXXffS8hE+AqdOin1kpXP1WNhjGz9mZ/kCSA+xosmwXbwhCJ1OUySiYznZlJBoTthZvQrYf3T6B3MY4IDAw4HYI+82rWQAHTU5JweeKnpDQM6VdhnHtqi+qh5nvNgsCXh7UBQe5nAeqDS4cJ48NxkGAnodDk9L1k4rQMBh3jVI3zjQ3ahxmGn4bl3MxlApyoSuULqYDYYZhMbMHwCnpNsBZhBx5WqYiAStarMNZiZ/QeZldxmFx0MbCnyDhDU5hxnic/h1o0gWmR2Tgy7TCwI9VvO5M5vwOARp4iyjP2W/3F3F1euB8KNZTB2vEkXdBGTuSVUx8TRiBYC6mkRCLbJkA0i2etifE64azDD5RwuRuhkNrs1DwSQW93Mj7ASOwCErvs3A5Hl4+ErdE7s83vfPuMtMjtMk569EnEurrQNA48Fxk2oGmiEU4dbY0Be7X1xXYHDM8IVoYOO+ZGtWmvXBA8nTCl+RUD44tCvBJ5t8YAsEqeB0McJuyn7jKPI7BBvEck5FjpgWZoIVgOG2yF+QV6tmBkEORpdh7mMZReZHSZg2j4jBDd0Mplrsl4PS+gCTv2smCGLxDmCRAZIcbc3WEVmh6d/IH05C4LoS3p5yExdIkEX7Kv9l7zawSJRISDL3S/7i8y+S04A6fc/FY00kTC/k4dyXudWgu1x631fkViuJtf5lJu9C3Ted//+EemL8Bk6uVK8qXEqEMZ2GLbwBYHCcgRk9/XjV24eHWPpu//EEom3o+Cr+5UogpnLFS4M0cpMW+l1gK/26oigvh1Opde3UZSb5SscgHsk9ejK99Mr+JL5rTzjwgcsZNfQBb46aWNPeldRdOWmzZFiIP17cv53OsyusfABFwp3wrDbkQS9OmkicyG9upah3HxmSX8DSnUtKtqYmD2uxqJMIa0TUDisFAh5tetB+o2zlZtEyBJffjnoMLN9lgNpkQyrqag+3jknl+0Pb4N9RisSK3MLPqnrJhzL+/I7LBsG0iJx4P9ZSG/TBl5H005i7uDtHqVILPm+OZWba0QlizQcsPB/HGCWpJOCLnBx5clX0nr7dtj5G8k2GqQ/C8ep3LR/O5KZeocRU4MiesYs6XPEa2BtEW5vEezibBfkf/X9p9L7IuFVbnolI7kpXTKCJ+ZZyK5IPEpRflh7M9xaJEYcEGTb2yDSOL0gkEDH2GT8R9mWiw4L80xkVpmF4S2awGE2WN/PmN3ZPiLYBRSWDVJhuSqksETGJuoUSLazLNxjYt3oqIJy+HTDg49w9PxTgp23OslXJB4i6ER8LjORoW7cmiVtmuCYdea42Mx/jbr4xZ6vgZWffW11gWDnr04agy1BbciUpW2E9lYzx/x5/I412p/RsLmxw1OisPHtXkwlTIbr4SnBzmBLgU9heb90NWFdJWXTEbk1Fs4YSIuDX/pSKwSteb5RivHiea9E8LO/N/WQYGdXJxWBKBIHGQcs3BNqjWR2NYCLK8VAKF6930LEratiZoPGvjF9jATBoz7skArLPBDiQKCxy8IcA/lNsJAgOoCoIbMzSeLdgfN+7T/LkfFAZd8vwIeIMa066b1PPXEg4Oiw8B1jXgcMNYzpauH3CGEhBeioYyQtfr1PJRTDVQW3bpFXu54hvgoKoJvrMjL/8ge6/M6h5dVE8LK+tjA0wgD8929HtCvdDF+T7dB7tz1pGwA0RGT4FN+MZo/lO3zq/b9ntvPwXamTDW8HGjvhd5LEk7YhQJOFFN+oSMuTQ0mnh+D1gJF86pU+3HuPKnH8RBSJQUCbhRl67016ye8OTyeC5/9Gpp6XcDFGbgZLxLFPtKUBAmUWVkVqmiqx00PwIlIvQNi6mt7wF4mBQFwRqXMq3AT7nboIXoKF2Bhx4QtSYakQmr+xcBPU/puqhvnUjDaCl3A5n1S9aAeGKkbpMzWm+or27DCHEkoPwUuanlwpZOhiFKuiXtAebeSIS6XPEFLwkvd3px8cJuEPtO0UndKo1rg7OTd9dFoIXsHFjKVtExnZ6LNwl789yTfq4HAIKIJXoEFJm3x8w9+2JC1PjpoUDQQvoBHxS6gj25fRo1m/wwSMB5/gBTbqLHT4tVCl9iTqBS+okUiYmijeZsemik694AUiONPMkkMf8z46Y16qOmIhQxG8AMdLBvoU5O8EA4UNNXB4myJ4QY4dBvJ3gloZx2x2rLngJaNgEmBEDKxT22wpb3Hj8IebIFHwklIwCS7KDOxR0GWXkYMneDkcD5a6oQssNlnaFGqTG2ZtpULBSyWoeR5k5NYYaFMwejejtqrADfxgAIoZiuAFPRoMtCioMpBdkw/8yC94SWksAxz2WYKoLMhQt/3FL3hJaiwDKkReyJ2eiLDg5fDiW+pWSp72qOv0QoRF4jlMwNOfKIIXN64sdZsKAnRiEYlI1rmF+1+PZ0oVIn7BSwDU7AwGtIxojy3Byzh3ensMDqwlqh19gpdmAEdAXWcgf0Mkl8lzX2XDNWhaaoM1UvACZKdTEYe7kPxa6M8UF7+4TmYY5+xkKMJPnuAVEthh4Pfcapa2yP/50x7r3AR8m4MnFaJWBxRoqWZ5zFHjzY0ksRReOx5uXZ36pwe1rR/AUdTNsZDgUAgeb69TCE8TwJgDEyw7nVS9/JUFg4IQ7ETmemZ1EX3nyLvWE1BUFvBXN+0KIEH+/ZDnCwvPTsvqpkMWUpIAI/0LCxi0rLC8a6SNDMg+B94Ljaq816R2pgIttGk08UJ6VwawvlDb7Ia/4dZOeO/KzIZb/E3/WuECTZr+RTUOCTVEXujSeDSznTkEsBDZKW5+zC+hDm8JFShtwC7yCERmJVSg9BEIkYdo8huhQlb6EI3IY1itUNnp8hhW9J1h960bHtDlQb5oTsJjRlIqa4GCykdBxR4mzmzjgKTKWpig8mFiscfR70iCwwd/oG6n6EBiUfk4OrtDA3YDWzn4ll5ZW2o0AdJOZYcGgl1ifCMN9JxKEqB2CrvEEO1UZWQb5JhhQZ9OVeZZ2AwR6NMtz2CvgedEWECfjp2iNrPCIDygrmsw8c7lpsMDGnUuN7xMLHTDF/k1Fk74OrhkP7MfGlDVwaWELlIP4EadA7p0kRp9wMJOuOxUdLLL200zu+lEmECPbppXmGkbsYQMtOjoO6oxX4YrGnKGYzjkeXNYwmGnysIw3yUNV/H3MEVf1pAwn/AMKRSayG+w8Im0IXNSSxgykDxkjqSXuWtAo84NpYMu0Zshs2udwmQnddguiQO/NUMFcgd+kzh0YHsLHfxQwd1uCQ4+yW5eAjz5Iz8kDz4pdfjSwh3A7+w74QidkuFL5Q6Au4RODFOw7ewkPEGn3QC40TwT+Q3hw41gIdvZv6BTM4Sy3EG4z82u6KFzYOHa2SJBp2gQbtnDuG8KH77qWah2tn6KTs0w7rInAnBuhpaE3X24cIVOz4kARJlV4TktPq4qTLDXAJ2mU0mIBrORYzok4u4GWIjI9qCDTtfJSEQ1w8IdcXQOLDw7O5Mkqo41OQY1sQ/Dkrj7asZCs7OT4QKd6gmRyBVSR3ckEnF3cWSB2dl/o9N5Si3RI8M38zzhyGHZeTenbFI2qqb1Ux3kJLhcxoKyGwN0yqb1I3diSBw9GYlfDxDcCAMQO90nhhTVFMx8yOFzOFAMCUCnbGpRKien1S01dBP/OylmwMBgQKduclpKpzeWWZFxSECCBA78qXNBmN5Y9KLFTnVyQYYrZRQI2HbBmCBbtMzGTiUWdoF8RkS3KdapmKSf/If4A4hAT9IvesA3j0p4EOhpHkZRn28ijGEBF1fYRmKYvhZTzcxvVGIHDQI+1cxomYN0guAg4JMVjd6s8/EAA62mu6rTjIRhgU4TptVnyr3lEg8o0GjKvTpN2riJsECzSRsrI3HxQAL9pv2sR4SXpQGHAIE2E8fWberh7VLLfzigzdTDtZu8ercUORjQZfLqGkx/nm965lBAk+nPazmB/vIWOiCgxwT6NTXBILdWiZ1cWP1grS2GJEGnhwkGuhrx8DFKxWAohAmwVi9Y+27melhEdHoY8aCrGRjnpinXYeXKG3dbG1g7GW59iOicHmZgaGyJk0lvY+aM+GDAT54fWasDrLV/yJEFL6SJISEamaKi3NQb55xv+Hb1uBneX0QvpIspKhoaM8MaR7gi96Lk8O2FzDtBMZ7eJ20q1ceYGd3M4eG5zhY6FdbBqsS2I2wq1ckcHu0MKuI3WEo6wW3LgUC6tTKoKBAmORU25lRI0duSEAiTnAJi1FW3riAPBWDpCIJRV4ExC6xd0ro4PZAL12Ac6EMHBsAssAAZltbSxa494nfj6erZaDjbm8qG++hgNiwtig61Nt2ObuU5Ov1Nk4Pa+D/aBBCCYNxe0Fx7DWNYzSMMooGNplnBnxcMbIyieSPC9fOBiZZRdLcqwgUKW70cWCM/o+g/LV6uv1dKRADNRA2yobHnZicpIMJnaGzQTdU1f04k4JmqG3hjh89Nt4elAGDGDoNgLrPJrtURoTKX+eEbGAyuPjfVZiKByuBqSEz27g5LMJnsDYzR5/kbPYCMPgfHbHiTX9uFxmx4eAzPPzdmkwg4IAzPD/zSBQgwpCREDPulC4iiV8tGKPB6eEuFYA/64hcAt3wK7WYdMQ728ikAuAAPxi5VAr0ADxAu4cS5MaM7mmU9l3AikchYwglAFwHDFDbS2+okwQVrETDgWUYOUcKdgzL6TgVlGTlgWogQYUJ3OiXF3qlgLEQI3EtZUt0csezGgVjKEuAXQ8XcOUlJdfYisWi2GCrwLaeLHNZWfm16dohLcOjfYq2W0yVcFmSmtdM4SVuWdgeF/Qr/gsxsyl+QmdBa0hszesfrO/kNLZb0JsQWhedck0Xh+blnWYF+7lmYop97ljbp553Fcfq5Z3mlwmCBrmoeQU9KbT48FjHrUM8l3jpc+Xl5kcBgUValRdJlmcnqsz/nLFTazzlL3fbzzWLJ/Tyw3Hb5O0Ffbrsp6nLb/UbEFgE=;" parent="1" vertex="1">
          <mxGeometry x="-2595.55" y="-20" width="99.93" height="100.62" as="geometry" />
        </mxCell>
        <mxCell id="hr_C6YJtpPprGCPxRi_A-6" value="" style="sketch=0;outlineConnect=0;fontColor=#232F3E;gradientColor=none;strokeColor=#ffffff;fillColor=#232F3E;dashed=0;verticalLabelPosition=middle;verticalAlign=bottom;align=center;html=1;whiteSpace=wrap;fontSize=10;fontStyle=1;spacing=3;shape=mxgraph.aws4.productIcon;prIcon=mxgraph.aws4.glue;aspect=fixed;" parent="1" vertex="1">
          <mxGeometry x="-1851.25" y="-160.00000000000006" width="85" height="90" as="geometry" />
        </mxCell>
        <mxCell id="hr_C6YJtpPprGCPxRi_A-80" value="" style="edgeStyle=orthogonalEdgeStyle;rounded=0;orthogonalLoop=1;jettySize=auto;html=1;strokeWidth=3;" parent="1" source="hr_C6YJtpPprGCPxRi_A-7" edge="1">
          <mxGeometry relative="1" as="geometry">
            <mxPoint x="-1140" y="25" as="targetPoint" />
          </mxGeometry>
        </mxCell>
        <mxCell id="hr_C6YJtpPprGCPxRi_A-7" value="" style="sketch=0;points=[[0,0,0],[0.25,0,0],[0.5,0,0],[0.75,0,0],[1,0,0],[0,1,0],[0.25,1,0],[0.5,1,0],[0.75,1,0],[1,1,0],[0,0.25,0],[0,0.5,0],[0,0.75,0],[1,0.25,0],[1,0.5,0],[1,0.75,0]];outlineConnect=0;fontColor=#232F3E;fillColor=#7AA116;strokeColor=#ffffff;dashed=0;verticalLabelPosition=bottom;verticalAlign=top;align=center;html=1;fontSize=12;fontStyle=0;aspect=fixed;shape=mxgraph.aws4.resourceIcon;resIcon=mxgraph.aws4.s3;" parent="1" vertex="1">
          <mxGeometry x="-1420" y="-30" width="110" height="110" as="geometry" />
        </mxCell>
        <mxCell id="hr_C6YJtpPprGCPxRi_A-82" value="" style="edgeStyle=orthogonalEdgeStyle;rounded=0;orthogonalLoop=1;jettySize=auto;html=1;exitX=1;exitY=0.089;exitDx=0;exitDy=0;exitPerimeter=0;strokeWidth=3;" parent="1" source="hr_C6YJtpPprGCPxRi_A-25" target="hr_C6YJtpPprGCPxRi_A-9" edge="1">
          <mxGeometry relative="1" as="geometry">
            <mxPoint x="-1640" y="-190" as="sourcePoint" />
          </mxGeometry>
        </mxCell>
        <mxCell id="hr_C6YJtpPprGCPxRi_A-9" value="" style="outlineConnect=0;dashed=0;verticalLabelPosition=bottom;verticalAlign=top;align=center;html=1;shape=mxgraph.aws3.cloudwatch;fillColor=#759C3E;gradientColor=none;" parent="1" vertex="1">
          <mxGeometry x="-1310" y="-250" width="110" height="120" as="geometry" />
        </mxCell>
        <mxCell id="hr_C6YJtpPprGCPxRi_A-11" value="" style="verticalLabelPosition=bottom;html=1;verticalAlign=top;align=center;strokeColor=none;fillColor=#00BEF2;shape=mxgraph.azure.cloud_services_configuration_file;pointerEvents=1;" parent="1" vertex="1">
          <mxGeometry x="-2685.5499999999997" y="180" width="80" height="80" as="geometry" />
        </mxCell>
        <mxCell id="hr_C6YJtpPprGCPxRi_A-56" value="" style="edgeStyle=orthogonalEdgeStyle;rounded=0;orthogonalLoop=1;jettySize=auto;html=1;strokeWidth=2;" parent="1" source="hr_C6YJtpPprGCPxRi_A-10" target="hr_C6YJtpPprGCPxRi_A-45" edge="1">
          <mxGeometry relative="1" as="geometry">
            <mxPoint x="-2525.55" y="-150" as="targetPoint" />
          </mxGeometry>
        </mxCell>
        <mxCell id="hr_C6YJtpPprGCPxRi_A-10" value="" style="verticalLabelPosition=bottom;html=1;verticalAlign=top;align=center;strokeColor=none;fillColor=#00BEF2;shape=mxgraph.azure.cloud_services_configuration_file;pointerEvents=1;" parent="1" vertex="1">
          <mxGeometry x="-2685.55" y="-190" width="80" height="80" as="geometry" />
        </mxCell>
        <mxCell id="hr_C6YJtpPprGCPxRi_A-12" value="" style="outlineConnect=0;dashed=0;verticalLabelPosition=bottom;verticalAlign=top;align=center;html=1;shape=mxgraph.aws3.athena;fillColor=#F58534;gradientColor=none;" parent="1" vertex="1">
          <mxGeometry x="-1130" y="-30" width="100" height="110" as="geometry" />
        </mxCell>
        <mxCell id="hr_C6YJtpPprGCPxRi_A-71" value="" style="edgeStyle=orthogonalEdgeStyle;rounded=0;orthogonalLoop=1;jettySize=auto;html=1;entryX=0.45;entryY=-0.148;entryDx=0;entryDy=0;entryPerimeter=0;strokeWidth=3;" parent="1" source="hr_C6YJtpPprGCPxRi_A-19" target="hr_C6YJtpPprGCPxRi_A-38" edge="1">
          <mxGeometry relative="1" as="geometry">
            <mxPoint x="-1812.5" y="360" as="targetPoint" />
          </mxGeometry>
        </mxCell>
        <mxCell id="hr_C6YJtpPprGCPxRi_A-19" value="" style="verticalLabelPosition=bottom;html=1;verticalAlign=top;align=center;strokeColor=none;fillColor=#00BEF2;shape=mxgraph.azure.user;" parent="1" vertex="1">
          <mxGeometry x="-1852.5" y="450" width="80" height="80" as="geometry" />
        </mxCell>
        <mxCell id="hr_C6YJtpPprGCPxRi_A-15" value="" style="sketch=0;outlineConnect=0;fontColor=#232F3E;gradientColor=none;strokeColor=#ffffff;fillColor=#232F3E;dashed=0;verticalLabelPosition=middle;verticalAlign=bottom;align=center;html=1;whiteSpace=wrap;fontSize=10;fontStyle=1;spacing=3;shape=mxgraph.aws4.productIcon;prIcon=mxgraph.aws4.glue;aspect=fixed;" parent="1" vertex="1">
          <mxGeometry x="-1852.5" y="100" width="85" height="90" as="geometry" />
        </mxCell>
        <mxCell id="hr_C6YJtpPprGCPxRi_A-14" value="" style="sketch=0;outlineConnect=0;fontColor=#232F3E;gradientColor=none;fillColor=#E7157B;strokeColor=none;dashed=0;verticalLabelPosition=bottom;verticalAlign=top;align=center;html=1;fontSize=12;fontStyle=0;aspect=fixed;pointerEvents=1;shape=mxgraph.aws4.eventbridge_scheduler;" parent="1" vertex="1">
          <mxGeometry x="-1857.5" y="-500" width="81" height="81" as="geometry" />
        </mxCell>
        <mxCell id="hr_C6YJtpPprGCPxRi_A-69" value="" style="edgeStyle=orthogonalEdgeStyle;rounded=0;orthogonalLoop=1;jettySize=auto;html=1;strokeWidth=3;" parent="1" source="hr_C6YJtpPprGCPxRi_A-33" target="hr_C6YJtpPprGCPxRi_A-6" edge="1">
          <mxGeometry relative="1" as="geometry">
            <mxPoint x="-1808.75" y="-305" as="targetPoint" />
          </mxGeometry>
        </mxCell>
        <mxCell id="hr_C6YJtpPprGCPxRi_A-33" value="&lt;span style=&quot;font-size: 18px;&quot;&gt;&lt;b&gt;Scheduled&amp;nbsp;&lt;/b&gt;&lt;/span&gt;&lt;div&gt;&lt;span style=&quot;font-size: 18px;&quot;&gt;&lt;b&gt;Base on TIme&lt;/b&gt;&lt;/span&gt;&lt;/div&gt;" style="text;strokeColor=none;align=center;fillColor=none;html=1;verticalAlign=middle;whiteSpace=wrap;rounded=0;" parent="1" vertex="1">
          <mxGeometry x="-1913.75" y="-400" width="210" height="30" as="geometry" />
        </mxCell>
        <mxCell id="hr_C6YJtpPprGCPxRi_A-36" value="&lt;font style=&quot;font-size: 18px;&quot;&gt;&lt;b style=&quot;&quot;&gt;ON Demand&amp;nbsp;&lt;/b&gt;&lt;/font&gt;&lt;div&gt;&lt;font style=&quot;font-size: 18px;&quot;&gt;&lt;b style=&quot;&quot;&gt;Manual Trigger&lt;/b&gt;&lt;/font&gt;&lt;/div&gt;" style="text;strokeColor=none;align=center;fillColor=none;html=1;verticalAlign=middle;whiteSpace=wrap;rounded=0;" parent="1" vertex="1">
          <mxGeometry x="-1905" y="569" width="185" height="30" as="geometry" />
        </mxCell>
        <mxCell id="hr_C6YJtpPprGCPxRi_A-37" value="&lt;font style=&quot;font-size: 18px;&quot;&gt;&lt;b style=&quot;&quot;&gt;Historical Load&lt;/b&gt;&lt;/font&gt;&lt;div&gt;&lt;font style=&quot;font-size: 18px;&quot;&gt;&lt;b style=&quot;&quot;&gt;&amp;nbsp;Glue Job&lt;/b&gt;&lt;/font&gt;&lt;/div&gt;" style="text;strokeColor=none;align=center;fillColor=none;html=1;verticalAlign=middle;whiteSpace=wrap;rounded=0;" parent="1" vertex="1">
          <mxGeometry x="-1650" y="250" width="180" height="30" as="geometry" />
        </mxCell>
        <mxCell id="hr_C6YJtpPprGCPxRi_A-44" value="&lt;font style=&quot;font-size: 18px;&quot;&gt;&lt;b style=&quot;&quot;&gt;ADOBE ANALYTICS&lt;/b&gt;&lt;/font&gt;" style="text;strokeColor=none;align=center;fillColor=none;html=1;verticalAlign=middle;whiteSpace=wrap;rounded=0;" parent="1" vertex="1">
          <mxGeometry x="-2570.55" y="100" width="60" height="50" as="geometry" />
        </mxCell>
        <mxCell id="hr_C6YJtpPprGCPxRi_A-90" value="" style="edgeStyle=orthogonalEdgeStyle;rounded=0;orthogonalLoop=1;jettySize=auto;html=1;entryX=0;entryY=0.482;entryDx=0;entryDy=0;entryPerimeter=0;strokeWidth=3;" parent="1" source="hr_C6YJtpPprGCPxRi_A-45" target="hr_C6YJtpPprGCPxRi_A-25" edge="1">
          <mxGeometry relative="1" as="geometry">
            <mxPoint x="-2327.05" y="-150.50000000000023" as="targetPoint" />
            <Array as="points">
              <mxPoint x="-2200" y="-150" />
              <mxPoint x="-2200" y="30" />
            </Array>
          </mxGeometry>
        </mxCell>
        <mxCell id="hr_C6YJtpPprGCPxRi_A-45" value="" style="sketch=0;points=[[0,0,0],[0.25,0,0],[0.5,0,0],[0.75,0,0],[1,0,0],[0,1,0],[0.25,1,0],[0.5,1,0],[0.75,1,0],[1,1,0],[0,0.25,0],[0,0.5,0],[0,0.75,0],[1,0.25,0],[1,0.5,0],[1,0.75,0]];outlineConnect=0;fontColor=#232F3E;fillColor=#7AA116;strokeColor=#ffffff;dashed=0;verticalLabelPosition=bottom;verticalAlign=top;align=center;html=1;fontSize=12;fontStyle=0;aspect=fixed;shape=mxgraph.aws4.resourceIcon;resIcon=mxgraph.aws4.s3;" parent="1" vertex="1">
          <mxGeometry x="-2485.55" y="-190.00000000000006" width="79" height="79" as="geometry" />
        </mxCell>
        <mxCell id="hr_C6YJtpPprGCPxRi_A-88" value="" style="edgeStyle=orthogonalEdgeStyle;rounded=0;orthogonalLoop=1;jettySize=auto;html=1;entryX=-0.012;entryY=0.484;entryDx=0;entryDy=0;entryPerimeter=0;strokeWidth=3;" parent="1" edge="1">
          <mxGeometry relative="1" as="geometry">
            <mxPoint x="-2396.55" y="219.2361904761906" as="sourcePoint" />
            <mxPoint x="-1983.96" y="30.799999999999965" as="targetPoint" />
            <Array as="points">
              <mxPoint x="-2200" y="219" />
              <mxPoint x="-2200" y="31" />
            </Array>
          </mxGeometry>
        </mxCell>
        <mxCell id="hr_C6YJtpPprGCPxRi_A-46" value="" style="sketch=0;points=[[0,0,0],[0.25,0,0],[0.5,0,0],[0.75,0,0],[1,0,0],[0,1,0],[0.25,1,0],[0.5,1,0],[0.75,1,0],[1,1,0],[0,0.25,0],[0,0.5,0],[0,0.75,0],[1,0.25,0],[1,0.5,0],[1,0.75,0]];outlineConnect=0;fontColor=#232F3E;fillColor=#7AA116;strokeColor=#ffffff;dashed=0;verticalLabelPosition=bottom;verticalAlign=top;align=center;html=1;fontSize=12;fontStyle=0;aspect=fixed;shape=mxgraph.aws4.resourceIcon;resIcon=mxgraph.aws4.s3;" parent="1" vertex="1">
          <mxGeometry x="-2475.55" y="179.99999999999994" width="79" height="79" as="geometry" />
        </mxCell>
        <mxCell id="hr_C6YJtpPprGCPxRi_A-49" value="&lt;font style=&quot;font-size: 18px;&quot;&gt;&lt;b style=&quot;&quot;&gt;Python Modules&lt;/b&gt;&lt;/font&gt;" style="text;strokeColor=none;align=center;fillColor=none;html=1;verticalAlign=middle;whiteSpace=wrap;rounded=0;" parent="1" vertex="1">
          <mxGeometry x="-2705.5499999999997" y="-88.5" width="159.45" height="47" as="geometry" />
        </mxCell>
        <mxCell id="hr_C6YJtpPprGCPxRi_A-51" value="&lt;font style=&quot;font-size: 18px;&quot;&gt;&lt;b&gt;Target&amp;nbsp;&lt;/b&gt;&lt;/font&gt;&lt;div&gt;&lt;font style=&quot;font-size: 18px;&quot;&gt;&lt;b&gt;S3 Bucket&lt;/b&gt;&lt;/font&gt;&lt;/div&gt;" style="text;strokeColor=none;align=center;fillColor=none;html=1;verticalAlign=middle;whiteSpace=wrap;rounded=0;" parent="1" vertex="1">
          <mxGeometry x="-1400.0000000000002" y="130" width="89.5" height="30" as="geometry" />
        </mxCell>
        <mxCell id="hr_C6YJtpPprGCPxRi_A-52" value="&lt;font style=&quot;font-size: 18px;&quot;&gt;&lt;b&gt;S3 Bucket&lt;/b&gt;&lt;/font&gt;" style="text;strokeColor=none;align=center;fillColor=none;html=1;verticalAlign=middle;whiteSpace=wrap;rounded=0;" parent="1" vertex="1">
          <mxGeometry x="-2480.8" y="280" width="89.5" height="30" as="geometry" />
        </mxCell>
        <mxCell id="hr_C6YJtpPprGCPxRi_A-53" value="&lt;font style=&quot;font-size: 18px;&quot;&gt;&lt;b style=&quot;&quot;&gt;Config File&lt;/b&gt;&lt;/font&gt;" style="text;strokeColor=none;align=center;fillColor=none;html=1;verticalAlign=middle;whiteSpace=wrap;rounded=0;" parent="1" vertex="1">
          <mxGeometry x="-2729.9999999999995" y="263" width="159.45" height="47" as="geometry" />
        </mxCell>
        <mxCell id="hr_C6YJtpPprGCPxRi_A-58" value="" style="edgeStyle=orthogonalEdgeStyle;rounded=0;orthogonalLoop=1;jettySize=auto;html=1;strokeWidth=2;exitX=1.012;exitY=0.612;exitDx=0;exitDy=0;exitPerimeter=0;" parent="1" source="hr_C6YJtpPprGCPxRi_A-11" edge="1">
          <mxGeometry relative="1" as="geometry">
            <mxPoint x="-2600.55" y="228.89" as="sourcePoint" />
            <mxPoint x="-2480.55" y="228.89" as="targetPoint" />
          </mxGeometry>
        </mxCell>
        <mxCell id="hr_C6YJtpPprGCPxRi_A-73" value="&lt;span style=&quot;font-size: 18px;&quot;&gt;&lt;b&gt;Target Athena Tables&lt;/b&gt;&lt;/span&gt;" style="text;strokeColor=none;align=center;fillColor=none;html=1;verticalAlign=middle;whiteSpace=wrap;rounded=0;" parent="1" vertex="1">
          <mxGeometry x="-1130" y="130" width="129.5" height="30" as="geometry" />
        </mxCell>
        <mxCell id="hr_C6YJtpPprGCPxRi_A-74" value="&lt;b&gt;&lt;font style=&quot;font-size: 18px;&quot;&gt;Cloud Watch Logs&lt;/font&gt;&lt;/b&gt;" style="text;strokeColor=none;align=center;fillColor=none;html=1;verticalAlign=middle;whiteSpace=wrap;rounded=0;" parent="1" vertex="1">
          <mxGeometry x="-1325" y="-120" width="165" height="30" as="geometry" />
        </mxCell>
        <mxCell id="hr_C6YJtpPprGCPxRi_A-38" value="&lt;font style=&quot;font-size: 18px;&quot;&gt;&lt;b style=&quot;&quot;&gt;Incremental Load&amp;nbsp;&lt;/b&gt;&lt;/font&gt;&lt;div&gt;&lt;font style=&quot;font-size: 18px;&quot;&gt;&lt;b style=&quot;&quot;&gt;Glue Job&lt;/b&gt;&lt;/font&gt;&lt;/div&gt;" style="text;strokeColor=none;align=center;fillColor=none;html=1;verticalAlign=middle;whiteSpace=wrap;rounded=0;" parent="1" vertex="1">
          <mxGeometry x="-1918.5" y="204.5" width="237" height="30" as="geometry" />
        </mxCell>
      </root>
    </mxGraphModel>
  </diagram>
</mxfile>
